<svg xmlns="http://www.w3.org/2000/svg" xmlns:xlink="http://www.w3.org/1999/xlink" width="430" zoomAndPan="magnify" viewBox="0 0 322.5 98.999996" height="132" preserveAspectRatio="xMidYMid meet" version="1.0"><defs><g/><clipPath id="0c0317c262"><path d="M 0 5 L 76.5 5 L 76.5 90.476562 L 0 90.476562 Z M 0 5 " clip-rule="nonzero"/></clipPath><clipPath id="48ceaf1a9d"><path d="M 37 1.226562 L 76 1.226562 L 76 54 L 37 54 Z M 37 1.226562 " clip-rule="nonzero"/></clipPath></defs><g clip-path="url(#0c0317c262)"><path fill="#f18824" d="M 76.492188 68.144531 L 21.632812 68.144531 L 21.632812 5.761719 L 0 5.761719 L 0 90.390625 L 33.1875 90.390625 C 52.242188 90.390625 64.429688 81.414062 70.589844 69.292969 L 70.71875 69 Z M 50.8125 69.292969 C 46.613281 72.835938 40.816406 75.054688 33.1875 75.054688 L 15.808594 75.054688 L 15.808594 20.851562 L 20.59375 20.851562 L 20.59375 69.292969 Z M 50.8125 69.292969 " fill-opacity="1" fill-rule="evenodd"/></g><g clip-path="url(#48ceaf1a9d)"><path fill="#818181" d="M 37.542969 1.308594 L 37.570312 1.492188 M 59.398438 52.144531 L 38.71875 52.144531 L 38.71875 21.292969 C 53.101562 23.675781 59.292969 35.445312 59.613281 47.230469 C 59.660156 48.871094 59.589844 50.515625 59.398438 52.144531 Z M 37.570312 21.121094 L 37.570312 53.292969 L 75.179688 53.292969 C 75.21875 52.90625 75.253906 52.523438 75.277344 52.144531 C 75.402344 50.550781 75.449219 48.949219 75.421875 47.347656 C 75.085938 27.789062 63.800781 8.492188 38.71875 6.023438 L 38.660156 6.023438 L 38.640625 6.019531 L 38.601562 6.019531 L 38.554688 6.011719 L 38.539062 6.011719 L 38.480469 6.003906 L 38.476562 6.003906 L 38.421875 6 L 38.375 6 L 38.371094 5.992188 L 38.304688 5.992188 L 38.296875 5.984375 L 38.273438 5.984375 L 38.257812 5.914062 L 38.253906 5.839844 L 38.238281 5.769531 L 38.226562 5.691406 L 38.214844 5.609375 L 38.199219 5.53125 L 38.1875 5.445312 L 38.175781 5.355469 L 38.160156 5.269531 L 38.148438 5.171875 L 38.128906 5.078125 L 38.113281 4.980469 L 38.101562 4.882812 L 38.082031 4.777344 L 38.066406 4.671875 L 38.046875 4.5625 L 38.027344 4.449219 L 38.015625 4.332031 L 37.996094 4.222656 L 37.976562 4.097656 L 37.957031 3.976562 L 37.9375 3.847656 L 37.917969 3.722656 L 37.898438 3.589844 L 37.878906 3.460938 L 37.859375 3.320312 L 37.832031 3.183594 L 37.8125 3.039062 L 37.785156 2.894531 L 37.765625 2.75 L 37.742188 2.601562 L 37.722656 2.449219 L 37.695312 2.292969 L 37.667969 2.132812 L 37.640625 1.976562 L 37.621094 1.8125 L 37.597656 1.648438 L 37.570312 1.492188 Z M 37.570312 21.121094 " fill-opacity="1" fill-rule="evenodd"/></g><g fill="#000000" fill-opacity="1"><g transform="translate(76.283196, 73.899939)"><g><path d="M 41.953125 -18.8125 L 14.703125 -18.734375 C 15.003906 -15.066406 16.046875 -12.398438 17.828125 -10.734375 C 19.617188 -9.066406 22.066406 -8.234375 25.171875 -8.234375 C 27.609375 -8.234375 29.582031 -8.6875 31.09375 -9.59375 C 32.601562 -10.507812 33.820312 -11.890625 34.75 -13.734375 L 35.5625 -13.734375 L 42.640625 -9.203125 C 41.253906 -6.222656 39.160156 -3.804688 36.359375 -1.953125 C 33.566406 -0.109375 29.835938 0.8125 25.171875 0.8125 C 20.785156 0.8125 16.992188 -0.0195312 13.796875 -1.6875 C 10.597656 -3.351562 8.132812 -5.832031 6.40625 -9.125 C 4.675781 -12.425781 3.8125 -16.453125 3.8125 -21.203125 C 3.8125 -26.023438 4.722656 -30.09375 6.546875 -33.40625 C 8.367188 -36.71875 10.832031 -39.1875 13.9375 -40.8125 C 17.039062 -42.4375 20.523438 -43.25 24.390625 -43.25 C 30.398438 -43.25 35 -41.65625 38.1875 -38.46875 C 41.382812 -35.289062 42.984375 -30.625 42.984375 -24.46875 C 42.984375 -22.238281 42.90625 -20.507812 42.75 -19.28125 Z M 32.78125 -25.703125 C 32.6875 -28.941406 31.9375 -31.296875 30.53125 -32.765625 C 29.132812 -34.242188 27.085938 -34.984375 24.390625 -34.984375 C 19.003906 -34.984375 15.835938 -31.890625 14.890625 -25.703125 Z M 32.78125 -25.703125 "/></g></g></g><g fill="#000000" fill-opacity="1"><g transform="translate(122.421626, 73.899939)"><g><path d="M 41.953125 -18.8125 L 14.703125 -18.734375 C 15.003906 -15.066406 16.046875 -12.398438 17.828125 -10.734375 C 19.617188 -9.066406 22.066406 -8.234375 25.171875 -8.234375 C 27.609375 -8.234375 29.582031 -8.6875 31.09375 -9.59375 C 32.601562 -10.507812 33.820312 -11.890625 34.75 -13.734375 L 35.5625 -13.734375 L 42.640625 -9.203125 C 41.253906 -6.222656 39.160156 -3.804688 36.359375 -1.953125 C 33.566406 -0.109375 29.835938 0.8125 25.171875 0.8125 C 20.785156 0.8125 16.992188 -0.0195312 13.796875 -1.6875 C 10.597656 -3.351562 8.132812 -5.832031 6.40625 -9.125 C 4.675781 -12.425781 3.8125 -16.453125 3.8125 -21.203125 C 3.8125 -26.023438 4.722656 -30.09375 6.546875 -33.40625 C 8.367188 -36.71875 10.832031 -39.1875 13.9375 -40.8125 C 17.039062 -42.4375 20.523438 -43.25 24.390625 -43.25 C 30.398438 -43.25 35 -41.65625 38.1875 -38.46875 C 41.382812 -35.289062 42.984375 -30.625 42.984375 -24.46875 C 42.984375 -22.238281 42.90625 -20.507812 42.75 -19.28125 Z M 32.78125 -25.703125 C 32.6875 -28.941406 31.9375 -31.296875 30.53125 -32.765625 C 29.132812 -34.242188 27.085938 -34.984375 24.390625 -34.984375 C 19.003906 -34.984375 15.835938 -31.890625 14.890625 -25.703125 Z M 32.78125 -25.703125 "/></g></g></g><g fill="#000000" fill-opacity="1"><g transform="translate(168.560056, 73.899939)"><g><path d="M 6.125 17.203125 L 6.125 -42.453125 L 16.78125 -42.453125 L 16.78125 -36.90625 L 17.59375 -36.75 C 18.84375 -38.90625 20.519531 -40.523438 22.625 -41.609375 C 24.726562 -42.703125 27.191406 -43.25 30.015625 -43.25 C 33.429688 -43.25 36.414062 -42.441406 38.96875 -40.828125 C 41.519531 -39.210938 43.503906 -36.753906 44.921875 -33.453125 C 46.347656 -30.160156 47.0625 -26.078125 47.0625 -21.203125 C 47.0625 -16.359375 46.3125 -12.289062 44.8125 -9 C 43.3125 -5.71875 41.226562 -3.257812 38.5625 -1.625 C 35.894531 0 32.816406 0.8125 29.328125 0.8125 C 26.679688 0.8125 24.394531 0.367188 22.46875 -0.515625 C 20.550781 -1.398438 18.925781 -2.78125 17.59375 -4.65625 L 16.78125 -4.5 L 16.78125 17.203125 Z M 26.359375 -8.234375 C 29.535156 -8.234375 31.945312 -9.269531 33.59375 -11.34375 C 35.238281 -13.425781 36.0625 -16.710938 36.0625 -21.203125 C 36.0625 -25.691406 35.238281 -28.984375 33.59375 -31.078125 C 31.945312 -33.171875 29.535156 -34.21875 26.359375 -34.21875 C 23.378906 -34.21875 21.015625 -33.140625 19.265625 -30.984375 C 17.523438 -28.828125 16.65625 -25.566406 16.65625 -21.203125 C 16.65625 -16.867188 17.523438 -13.625 19.265625 -11.46875 C 21.015625 -9.3125 23.378906 -8.234375 26.359375 -8.234375 Z M 26.359375 -8.234375 "/></g></g></g><g fill="#000000" fill-opacity="1"><g transform="translate(219.393138, 73.899939)"><g><path d="M 20.96875 0.8125 C 17.613281 0.8125 14.644531 0 12.0625 -1.625 C 9.488281 -3.257812 7.46875 -5.722656 6 -9.015625 C 4.539062 -12.316406 3.8125 -16.378906 3.8125 -21.203125 C 3.8125 -26.054688 4.5625 -30.128906 6.0625 -33.421875 C 7.5625 -36.722656 9.640625 -39.1875 12.296875 -40.8125 C 14.953125 -42.4375 18.023438 -43.25 21.515625 -43.25 C 24.148438 -43.25 26.4375 -42.789062 28.375 -41.875 C 30.3125 -40.96875 31.945312 -39.554688 33.28125 -37.640625 L 34.09375 -37.828125 L 34.09375 -59.5 L 44.75 -59.5 L 44.75 0 L 34.09375 0 L 34.09375 -5.5 L 33.28125 -5.65625 C 32.101562 -3.65625 30.488281 -2.078125 28.4375 -0.921875 C 26.382812 0.234375 23.894531 0.8125 20.96875 0.8125 Z M 24.4375 -8.234375 C 27.4375 -8.234375 29.804688 -9.300781 31.546875 -11.4375 C 33.296875 -13.582031 34.171875 -16.835938 34.171875 -21.203125 C 34.171875 -25.566406 33.296875 -28.828125 31.546875 -30.984375 C 29.804688 -33.140625 27.4375 -34.21875 24.4375 -34.21875 C 21.300781 -34.21875 18.90625 -33.171875 17.25 -31.078125 C 15.601562 -28.984375 14.78125 -25.691406 14.78125 -21.203125 C 14.78125 -16.742188 15.601562 -13.46875 17.25 -11.375 C 18.90625 -9.28125 21.300781 -8.234375 24.4375 -8.234375 Z M 24.4375 -8.234375 "/></g></g></g><g fill="#000000" fill-opacity="1"><g transform="translate(270.264695, 73.899939)"><g><path d="M 41.953125 -18.8125 L 14.703125 -18.734375 C 15.003906 -15.066406 16.046875 -12.398438 17.828125 -10.734375 C 19.617188 -9.066406 22.066406 -8.234375 25.171875 -8.234375 C 27.609375 -8.234375 29.582031 -8.6875 31.09375 -9.59375 C 32.601562 -10.507812 33.820312 -11.890625 34.75 -13.734375 L 35.5625 -13.734375 L 42.640625 -9.203125 C 41.253906 -6.222656 39.160156 -3.804688 36.359375 -1.953125 C 33.566406 -0.109375 29.835938 0.8125 25.171875 0.8125 C 20.785156 0.8125 16.992188 -0.0195312 13.796875 -1.6875 C 10.597656 -3.351562 8.132812 -5.832031 6.40625 -9.125 C 4.675781 -12.425781 3.8125 -16.453125 3.8125 -21.203125 C 3.8125 -26.023438 4.722656 -30.09375 6.546875 -33.40625 C 8.367188 -36.71875 10.832031 -39.1875 13.9375 -40.8125 C 17.039062 -42.4375 20.523438 -43.25 24.390625 -43.25 C 30.398438 -43.25 35 -41.65625 38.1875 -38.46875 C 41.382812 -35.289062 42.984375 -30.625 42.984375 -24.46875 C 42.984375 -22.238281 42.90625 -20.507812 42.75 -19.28125 Z M 32.78125 -25.703125 C 32.6875 -28.941406 31.9375 -31.296875 30.53125 -32.765625 C 29.132812 -34.242188 27.085938 -34.984375 24.390625 -34.984375 C 19.003906 -34.984375 15.835938 -31.890625 14.890625 -25.703125 Z M 32.78125 -25.703125 "/></g></g></g></svg>